<?xml version="1.0" encoding="UTF-8"?>
<svg xmlns="http://www.w3.org/2000/svg" width="512" height="512" viewBox="0 0 512 512">
  <defs>
    <filter id="shadow" x="-50%" y="-50%" width="200%" height="200%">
      <feDropShadow dx="0" dy="4" stdDeviation="6" flood-color="#000" flood-opacity="0.25"/>
    </filter>
  </defs>

  <!-- Variant 1: blue shirt, short hair -->
  <g id="body" transform="translate(0,40)">
    <ellipse cx="256" cy="360" rx="110" ry="70" fill="#4da6ff" filter="url(#shadow)"/>
    <rect x="180" y="260" width="152" height="160" rx="36" ry="36" fill="#4da6ff"/>
    <ellipse cx="140" cy="320" rx="28" ry="44" fill="#ffd1a9"/>
    <ellipse cx="372" cy="320" rx="28" ry="44" fill="#ffd1a9"/>
    <rect x="110" y="300" width="60" height="26" rx="12" fill="#4da6ff"/>
    <rect x="342" y="300" width="60" height="26" rx="12" fill="#4da6ff"/>
  </g>

  <g id="legs">
    <rect x="206" y="410" width="36" height="70" rx="10" fill="#2f2f2f"/>
    <rect x="270" y="410" width="36" height="70" rx="10" fill="#2f2f2f"/>
    <ellipse cx="224" cy="492" rx="22" ry="14" fill="#2f2f2f"/>
    <ellipse cx="288" cy="492" rx="22" ry="14" fill="#2f2f2f"/>
  </g>

  <g id="head">
    <circle cx="256" cy="180" r="84" fill="#ffd1a9" stroke="#e6b18a" stroke-width="2"/>
    <ellipse cx="232" cy="170" rx="12" ry="16" fill="#ffffff"/>
    <ellipse cx="280" cy="170" rx="12" ry="16" fill="#ffffff"/>
    <circle cx="232" cy="174" r="6" fill="#1f1f1f"/>
    <circle cx="280" cy="174" r="6" fill="#1f1f1f"/>
    <circle cx="212" cy="192" r="8" fill="#ffb0a0" opacity="0.9"/>
    <circle cx="300" cy="192" r="8" fill="#ffb0a0" opacity="0.9"/>
    <path d="M230 208 Q256 228 282 208" stroke="#7a3a1f" stroke-width="6" fill="none" stroke-linecap="round" stroke-linejoin="round"/>
  </g>

  <g id="hair">
    <path d="M200 140 C220 118, 240 110, 256 110 C272 110, 292 118, 312 140 C292 130, 260 128, 256 132 C252 128, 220 130, 200 140 Z" fill="#2b2b2b"/>
  </g>

  <ellipse cx="256" cy="520" rx="140" ry="28" fill="#000" fill-opacity="0.12"/>
</svg>
